<mxfile host="app.diagrams.net" modified="2024-05-18T08:15:21.276Z" agent="Mozilla/5.0 (Windows NT 10.0; Win64; x64; rv:126.0) Gecko/20100101 Firefox/126.0" etag="l-fFIQlHHuiSa9QwB-kz" version="24.4.4" type="github">
  <diagram name="Page-1" id="OWR08jho91vcpXR-1PtF">
    <mxGraphModel dx="1050" dy="1746" grid="1" gridSize="10" guides="1" tooltips="1" connect="1" arrows="1" fold="1" page="1" pageScale="1" pageWidth="827" pageHeight="1169" math="0" shadow="0">
      <root>
        <mxCell id="0" />
        <mxCell id="1" parent="0" />
        <mxCell id="fuz9T2zDuwZ9aOWyhjX6-1" value="" style="whiteSpace=wrap;html=1;fillColor=#d5e8d4;strokeColor=#82b366;" vertex="1" parent="1">
          <mxGeometry x="160" y="-280" width="680" height="1360" as="geometry" />
        </mxCell>
        <mxCell id="fuz9T2zDuwZ9aOWyhjX6-2" value="ECF_ZOO" style="text;strokeColor=none;fillColor=none;html=1;fontSize=24;fontStyle=1;verticalAlign=middle;align=center;" vertex="1" parent="1">
          <mxGeometry x="660" y="-160" width="100" height="40" as="geometry" />
        </mxCell>
        <mxCell id="fuz9T2zDuwZ9aOWyhjX6-5" value="Administrateur" style="shape=umlActor;verticalLabelPosition=bottom;verticalAlign=top;html=1;outlineConnect=0;" vertex="1" parent="1">
          <mxGeometry x="40" y="-30" width="30" height="60" as="geometry" />
        </mxCell>
        <mxCell id="fuz9T2zDuwZ9aOWyhjX6-6" value="Employé" style="shape=umlActor;verticalLabelPosition=bottom;verticalAlign=top;html=1;outlineConnect=0;" vertex="1" parent="1">
          <mxGeometry x="40" y="460" width="30" height="60" as="geometry" />
        </mxCell>
        <mxCell id="fuz9T2zDuwZ9aOWyhjX6-39" style="rounded=0;orthogonalLoop=1;jettySize=auto;html=1;endArrow=none;endFill=0;" edge="1" parent="1" source="fuz9T2zDuwZ9aOWyhjX6-10" target="fuz9T2zDuwZ9aOWyhjX6-19">
          <mxGeometry relative="1" as="geometry" />
        </mxCell>
        <mxCell id="fuz9T2zDuwZ9aOWyhjX6-10" value="Visiteur" style="shape=umlActor;verticalLabelPosition=bottom;verticalAlign=top;html=1;outlineConnect=0;" vertex="1" parent="1">
          <mxGeometry x="960" y="660" width="30" height="60" as="geometry" />
        </mxCell>
        <mxCell id="fuz9T2zDuwZ9aOWyhjX6-11" value="Visualiser les animaux, ainsi que leur état" style="ellipse;whiteSpace=wrap;html=1;" vertex="1" parent="1">
          <mxGeometry x="640" y="800" width="120" height="80" as="geometry" />
        </mxCell>
        <mxCell id="fuz9T2zDuwZ9aOWyhjX6-16" value="Autoriser ou non avis visiteur à apparaître sur la page d&#39;accueil" style="ellipse;whiteSpace=wrap;html=1;" vertex="1" parent="1">
          <mxGeometry x="280" y="410" width="120" height="80" as="geometry" />
        </mxCell>
        <mxCell id="fuz9T2zDuwZ9aOWyhjX6-19" value="&lt;div&gt;Visualiser les services et les horaires du Zoo&lt;/div&gt;" style="ellipse;whiteSpace=wrap;html=1;" vertex="1" parent="1">
          <mxGeometry x="640" y="710" width="120" height="80" as="geometry" />
        </mxCell>
        <mxCell id="fuz9T2zDuwZ9aOWyhjX6-21" value="Sélectionner un annimal et lui ajouter une consommation de nourriture" style="ellipse;whiteSpace=wrap;html=1;" vertex="1" parent="1">
          <mxGeometry x="280" y="505" width="120" height="80" as="geometry" />
        </mxCell>
        <mxCell id="fuz9T2zDuwZ9aOWyhjX6-24" style="rounded=0;orthogonalLoop=1;jettySize=auto;html=1;exitX=1;exitY=0.5;exitDx=0;exitDy=0;dashed=1;entryX=0;entryY=0.5;entryDx=0;entryDy=0;" edge="1" parent="1" source="fuz9T2zDuwZ9aOWyhjX6-26" target="fuz9T2zDuwZ9aOWyhjX6-30">
          <mxGeometry relative="1" as="geometry" />
        </mxCell>
        <mxCell id="fuz9T2zDuwZ9aOWyhjX6-25" value="&amp;lt;&amp;lt;Include&amp;gt;&amp;gt;" style="edgeLabel;html=1;align=center;verticalAlign=middle;resizable=0;points=[];" vertex="1" connectable="0" parent="fuz9T2zDuwZ9aOWyhjX6-24">
          <mxGeometry x="0.0429" y="-3" relative="1" as="geometry">
            <mxPoint y="-3" as="offset" />
          </mxGeometry>
        </mxCell>
        <mxCell id="fuz9T2zDuwZ9aOWyhjX6-26" value="Consulter le nombre de consultation par animal" style="ellipse;whiteSpace=wrap;html=1;" vertex="1" parent="1">
          <mxGeometry x="280" y="200" width="120" height="80" as="geometry" />
        </mxCell>
        <mxCell id="fuz9T2zDuwZ9aOWyhjX6-27" value="Créér un compte de type Employé et Vétérinaire" style="ellipse;whiteSpace=wrap;html=1;" vertex="1" parent="1">
          <mxGeometry x="280" y="100" width="120" height="80" as="geometry" />
        </mxCell>
        <mxCell id="fuz9T2zDuwZ9aOWyhjX6-29" value="&lt;div&gt;CRUD sur Services, horaires, habitats et animaux du zoo&lt;br&gt;&lt;/div&gt;" style="ellipse;whiteSpace=wrap;html=1;" vertex="1" parent="1">
          <mxGeometry x="280" y="10" width="120" height="80" as="geometry" />
        </mxCell>
        <mxCell id="fuz9T2zDuwZ9aOWyhjX6-30" value="Connexion sur dashboard Administrateur" style="ellipse;whiteSpace=wrap;html=1;" vertex="1" parent="1">
          <mxGeometry x="620" y="-30" width="120" height="80" as="geometry" />
        </mxCell>
        <mxCell id="fuz9T2zDuwZ9aOWyhjX6-31" style="rounded=0;orthogonalLoop=1;jettySize=auto;html=1;endArrow=none;endFill=0;entryX=0;entryY=0.5;entryDx=0;entryDy=0;" edge="1" parent="1" source="fuz9T2zDuwZ9aOWyhjX6-5" target="fuz9T2zDuwZ9aOWyhjX6-48">
          <mxGeometry relative="1" as="geometry">
            <mxPoint x="110" y="250" as="sourcePoint" />
            <mxPoint x="240" y="200" as="targetPoint" />
          </mxGeometry>
        </mxCell>
        <mxCell id="fuz9T2zDuwZ9aOWyhjX6-35" value="Vétérinaire" style="shape=umlActor;verticalLabelPosition=bottom;verticalAlign=top;html=1;outlineConnect=0;" vertex="1" parent="1">
          <mxGeometry x="40" y="930" width="30" height="60" as="geometry" />
        </mxCell>
        <mxCell id="fuz9T2zDuwZ9aOWyhjX6-37" value="Consulter l&quot;alimentation des animaux" style="ellipse;whiteSpace=wrap;html=1;" vertex="1" parent="1">
          <mxGeometry x="280" y="700" width="120" height="80" as="geometry" />
        </mxCell>
        <mxCell id="fuz9T2zDuwZ9aOWyhjX6-38" value="Saisir des informations sur un animal" style="ellipse;whiteSpace=wrap;html=1;" vertex="1" parent="1">
          <mxGeometry x="280" y="800" width="120" height="80" as="geometry" />
        </mxCell>
        <mxCell id="fuz9T2zDuwZ9aOWyhjX6-40" style="rounded=0;orthogonalLoop=1;jettySize=auto;html=1;endArrow=none;endFill=0;entryX=1;entryY=0.5;entryDx=0;entryDy=0;" edge="1" parent="1" source="fuz9T2zDuwZ9aOWyhjX6-10" target="fuz9T2zDuwZ9aOWyhjX6-11">
          <mxGeometry relative="1" as="geometry">
            <mxPoint x="875.78" y="952.88" as="sourcePoint" />
            <mxPoint x="739.78" y="909.88" as="targetPoint" />
          </mxGeometry>
        </mxCell>
        <mxCell id="fuz9T2zDuwZ9aOWyhjX6-41" style="rounded=0;orthogonalLoop=1;jettySize=auto;html=1;endArrow=none;endFill=0;entryX=1;entryY=0.5;entryDx=0;entryDy=0;" edge="1" parent="1" source="fuz9T2zDuwZ9aOWyhjX6-10" target="fuz9T2zDuwZ9aOWyhjX6-42">
          <mxGeometry relative="1" as="geometry">
            <mxPoint x="890" y="919.9" as="sourcePoint" />
            <mxPoint x="840" y="970" as="targetPoint" />
          </mxGeometry>
        </mxCell>
        <mxCell id="fuz9T2zDuwZ9aOWyhjX6-42" value="Commenter" style="ellipse;whiteSpace=wrap;html=1;" vertex="1" parent="1">
          <mxGeometry x="640" y="610" width="120" height="80" as="geometry" />
        </mxCell>
        <mxCell id="fuz9T2zDuwZ9aOWyhjX6-43" value="&lt;div&gt;Cliquer sur un annimal, ce qui déclenche un décompte&lt;br&gt;&lt;/div&gt;" style="ellipse;whiteSpace=wrap;html=1;" vertex="1" parent="1">
          <mxGeometry x="640" y="505" width="120" height="80" as="geometry" />
        </mxCell>
        <mxCell id="fuz9T2zDuwZ9aOWyhjX6-44" style="rounded=0;orthogonalLoop=1;jettySize=auto;html=1;endArrow=none;endFill=0;entryX=1;entryY=0.5;entryDx=0;entryDy=0;" edge="1" parent="1" source="fuz9T2zDuwZ9aOWyhjX6-10" target="fuz9T2zDuwZ9aOWyhjX6-43">
          <mxGeometry relative="1" as="geometry">
            <mxPoint x="900" y="827" as="sourcePoint" />
            <mxPoint x="770" y="710" as="targetPoint" />
          </mxGeometry>
        </mxCell>
        <mxCell id="fuz9T2zDuwZ9aOWyhjX6-45" value="Connexion via l&#39;application" style="ellipse;whiteSpace=wrap;html=1;" vertex="1" parent="1">
          <mxGeometry x="280" y="610" width="120" height="80" as="geometry" />
        </mxCell>
        <mxCell id="fuz9T2zDuwZ9aOWyhjX6-46" style="rounded=0;orthogonalLoop=1;jettySize=auto;html=1;endArrow=none;endFill=0;" edge="1" parent="1" source="fuz9T2zDuwZ9aOWyhjX6-6" target="fuz9T2zDuwZ9aOWyhjX6-45">
          <mxGeometry relative="1" as="geometry">
            <mxPoint x="90" y="316.21" as="sourcePoint" />
            <mxPoint x="255" y="550.21" as="targetPoint" />
          </mxGeometry>
        </mxCell>
        <mxCell id="fuz9T2zDuwZ9aOWyhjX6-48" value="&lt;div&gt;Configurer les services du zoo depuis le dashboard&lt;/div&gt;" style="ellipse;whiteSpace=wrap;html=1;" vertex="1" parent="1">
          <mxGeometry x="280" y="-80" width="120" height="80" as="geometry" />
        </mxCell>
        <mxCell id="fuz9T2zDuwZ9aOWyhjX6-49" style="rounded=0;orthogonalLoop=1;jettySize=auto;html=1;endArrow=none;endFill=0;entryX=0;entryY=0.5;entryDx=0;entryDy=0;" edge="1" parent="1" source="fuz9T2zDuwZ9aOWyhjX6-5" target="fuz9T2zDuwZ9aOWyhjX6-27">
          <mxGeometry relative="1" as="geometry">
            <mxPoint x="80" y="220" as="sourcePoint" />
            <mxPoint x="240" y="220" as="targetPoint" />
          </mxGeometry>
        </mxCell>
        <mxCell id="fuz9T2zDuwZ9aOWyhjX6-50" value="ECF" style="ellipse;whiteSpace=wrap;html=1;" vertex="1" parent="1">
          <mxGeometry x="280" y="-170" width="120" height="80" as="geometry" />
        </mxCell>
        <mxCell id="fuz9T2zDuwZ9aOWyhjX6-51" style="rounded=0;orthogonalLoop=1;jettySize=auto;html=1;endArrow=none;endFill=0;entryX=0;entryY=0.5;entryDx=0;entryDy=0;" edge="1" parent="1" source="fuz9T2zDuwZ9aOWyhjX6-5" target="fuz9T2zDuwZ9aOWyhjX6-50">
          <mxGeometry relative="1" as="geometry">
            <mxPoint x="80" y="140" as="sourcePoint" />
            <mxPoint x="230" y="140" as="targetPoint" />
          </mxGeometry>
        </mxCell>
        <mxCell id="fuz9T2zDuwZ9aOWyhjX6-52" style="rounded=0;orthogonalLoop=1;jettySize=auto;html=1;endArrow=none;endFill=0;entryX=0;entryY=0.5;entryDx=0;entryDy=0;" edge="1" parent="1" source="fuz9T2zDuwZ9aOWyhjX6-5" target="fuz9T2zDuwZ9aOWyhjX6-29">
          <mxGeometry relative="1" as="geometry">
            <mxPoint x="80" y="226" as="sourcePoint" />
            <mxPoint x="270" y="180" as="targetPoint" />
          </mxGeometry>
        </mxCell>
        <mxCell id="fuz9T2zDuwZ9aOWyhjX6-53" value="Consulter les comptes rendus du vértérinaire" style="ellipse;whiteSpace=wrap;html=1;" vertex="1" parent="1">
          <mxGeometry x="280" y="300" width="120" height="80" as="geometry" />
        </mxCell>
        <mxCell id="fuz9T2zDuwZ9aOWyhjX6-54" style="rounded=0;orthogonalLoop=1;jettySize=auto;html=1;endArrow=none;endFill=0;entryX=0;entryY=0.5;entryDx=0;entryDy=0;" edge="1" parent="1" source="fuz9T2zDuwZ9aOWyhjX6-5" target="fuz9T2zDuwZ9aOWyhjX6-26">
          <mxGeometry relative="1" as="geometry">
            <mxPoint x="80" y="249.63" as="sourcePoint" />
            <mxPoint x="280" y="361.63" as="targetPoint" />
          </mxGeometry>
        </mxCell>
        <mxCell id="fuz9T2zDuwZ9aOWyhjX6-56" style="rounded=0;orthogonalLoop=1;jettySize=auto;html=1;exitX=1;exitY=0.5;exitDx=0;exitDy=0;dashed=1;entryX=0;entryY=0.5;entryDx=0;entryDy=0;" edge="1" parent="1" source="fuz9T2zDuwZ9aOWyhjX6-53" target="fuz9T2zDuwZ9aOWyhjX6-30">
          <mxGeometry relative="1" as="geometry">
            <mxPoint x="430" y="438.09" as="sourcePoint" />
            <mxPoint x="630" y="240" as="targetPoint" />
          </mxGeometry>
        </mxCell>
        <mxCell id="fuz9T2zDuwZ9aOWyhjX6-57" value="&amp;lt;&amp;lt;Include&amp;gt;&amp;gt;" style="edgeLabel;html=1;align=center;verticalAlign=middle;resizable=0;points=[];" vertex="1" connectable="0" parent="fuz9T2zDuwZ9aOWyhjX6-56">
          <mxGeometry x="0.0429" y="-3" relative="1" as="geometry">
            <mxPoint y="-3" as="offset" />
          </mxGeometry>
        </mxCell>
        <mxCell id="fuz9T2zDuwZ9aOWyhjX6-66" style="rounded=0;orthogonalLoop=1;jettySize=auto;html=1;exitX=1;exitY=0.5;exitDx=0;exitDy=0;dashed=1;entryX=0;entryY=0.5;entryDx=0;entryDy=0;" edge="1" parent="1" source="fuz9T2zDuwZ9aOWyhjX6-29" target="fuz9T2zDuwZ9aOWyhjX6-30">
          <mxGeometry relative="1" as="geometry">
            <mxPoint x="420" y="240" as="sourcePoint" />
            <mxPoint x="660" y="60" as="targetPoint" />
          </mxGeometry>
        </mxCell>
        <mxCell id="fuz9T2zDuwZ9aOWyhjX6-67" value="&amp;lt;&amp;lt;Include&amp;gt;&amp;gt;" style="edgeLabel;html=1;align=center;verticalAlign=middle;resizable=0;points=[];" vertex="1" connectable="0" parent="fuz9T2zDuwZ9aOWyhjX6-66">
          <mxGeometry x="0.0429" y="-3" relative="1" as="geometry">
            <mxPoint y="-3" as="offset" />
          </mxGeometry>
        </mxCell>
        <mxCell id="fuz9T2zDuwZ9aOWyhjX6-68" style="rounded=0;orthogonalLoop=1;jettySize=auto;html=1;exitX=1;exitY=0.5;exitDx=0;exitDy=0;dashed=1;entryX=0;entryY=0.5;entryDx=0;entryDy=0;" edge="1" parent="1" source="fuz9T2zDuwZ9aOWyhjX6-48" target="fuz9T2zDuwZ9aOWyhjX6-30">
          <mxGeometry relative="1" as="geometry">
            <mxPoint x="420" y="170" as="sourcePoint" />
            <mxPoint x="650" y="200" as="targetPoint" />
          </mxGeometry>
        </mxCell>
        <mxCell id="fuz9T2zDuwZ9aOWyhjX6-69" value="&amp;lt;&amp;lt;Include&amp;gt;&amp;gt;" style="edgeLabel;html=1;align=center;verticalAlign=middle;resizable=0;points=[];" vertex="1" connectable="0" parent="fuz9T2zDuwZ9aOWyhjX6-68">
          <mxGeometry x="0.0429" y="-3" relative="1" as="geometry">
            <mxPoint y="-3" as="offset" />
          </mxGeometry>
        </mxCell>
        <mxCell id="fuz9T2zDuwZ9aOWyhjX6-70" style="rounded=0;orthogonalLoop=1;jettySize=auto;html=1;exitX=0.992;exitY=0.413;exitDx=0;exitDy=0;dashed=1;entryX=0;entryY=0.5;entryDx=0;entryDy=0;exitPerimeter=0;" edge="1" parent="1" source="fuz9T2zDuwZ9aOWyhjX6-27" target="fuz9T2zDuwZ9aOWyhjX6-30">
          <mxGeometry relative="1" as="geometry">
            <mxPoint x="400" y="340" as="sourcePoint" />
            <mxPoint x="640" y="160" as="targetPoint" />
          </mxGeometry>
        </mxCell>
        <mxCell id="fuz9T2zDuwZ9aOWyhjX6-71" value="&amp;lt;&amp;lt;Include&amp;gt;&amp;gt;" style="edgeLabel;html=1;align=center;verticalAlign=middle;resizable=0;points=[];" vertex="1" connectable="0" parent="fuz9T2zDuwZ9aOWyhjX6-70">
          <mxGeometry x="0.0429" y="-3" relative="1" as="geometry">
            <mxPoint y="-3" as="offset" />
          </mxGeometry>
        </mxCell>
        <mxCell id="fuz9T2zDuwZ9aOWyhjX6-77" style="rounded=0;orthogonalLoop=1;jettySize=auto;html=1;endArrow=none;endFill=0;entryX=0;entryY=0.5;entryDx=0;entryDy=0;" edge="1" parent="1" source="fuz9T2zDuwZ9aOWyhjX6-5" target="fuz9T2zDuwZ9aOWyhjX6-53">
          <mxGeometry relative="1" as="geometry">
            <mxPoint x="80" y="340.33" as="sourcePoint" />
            <mxPoint x="280" y="442.33" as="targetPoint" />
          </mxGeometry>
        </mxCell>
        <mxCell id="fuz9T2zDuwZ9aOWyhjX6-80" style="rounded=0;orthogonalLoop=1;jettySize=auto;html=1;endArrow=none;endFill=0;" edge="1" parent="1" target="fuz9T2zDuwZ9aOWyhjX6-16">
          <mxGeometry relative="1" as="geometry">
            <mxPoint x="70" y="490" as="sourcePoint" />
            <mxPoint x="280" y="482.67" as="targetPoint" />
          </mxGeometry>
        </mxCell>
        <mxCell id="fuz9T2zDuwZ9aOWyhjX6-81" style="rounded=0;orthogonalLoop=1;jettySize=auto;html=1;endArrow=none;endFill=0;entryX=0;entryY=0.5;entryDx=0;entryDy=0;" edge="1" parent="1" source="fuz9T2zDuwZ9aOWyhjX6-6" target="fuz9T2zDuwZ9aOWyhjX6-21">
          <mxGeometry relative="1" as="geometry">
            <mxPoint x="80" y="542" as="sourcePoint" />
            <mxPoint x="290" y="505" as="targetPoint" />
          </mxGeometry>
        </mxCell>
        <mxCell id="fuz9T2zDuwZ9aOWyhjX6-82" style="rounded=0;orthogonalLoop=1;jettySize=auto;html=1;endArrow=none;endFill=0;entryX=0.092;entryY=0.8;entryDx=0;entryDy=0;entryPerimeter=0;" edge="1" parent="1" source="fuz9T2zDuwZ9aOWyhjX6-35" target="fuz9T2zDuwZ9aOWyhjX6-45">
          <mxGeometry relative="1" as="geometry">
            <mxPoint x="70" y="530.33" as="sourcePoint" />
            <mxPoint x="280" y="763.33" as="targetPoint" />
          </mxGeometry>
        </mxCell>
        <mxCell id="fuz9T2zDuwZ9aOWyhjX6-83" style="rounded=0;orthogonalLoop=1;jettySize=auto;html=1;endArrow=none;endFill=0;entryX=0;entryY=0.5;entryDx=0;entryDy=0;exitX=1;exitY=0.3333333333333333;exitDx=0;exitDy=0;exitPerimeter=0;" edge="1" parent="1" source="fuz9T2zDuwZ9aOWyhjX6-35" target="fuz9T2zDuwZ9aOWyhjX6-37">
          <mxGeometry relative="1" as="geometry">
            <mxPoint x="40" y="927" as="sourcePoint" />
            <mxPoint x="261" y="650" as="targetPoint" />
          </mxGeometry>
        </mxCell>
        <mxCell id="fuz9T2zDuwZ9aOWyhjX6-84" value="Mettre un commentaire sur les habitats" style="ellipse;whiteSpace=wrap;html=1;" vertex="1" parent="1">
          <mxGeometry x="280" y="900" width="120" height="80" as="geometry" />
        </mxCell>
        <mxCell id="fuz9T2zDuwZ9aOWyhjX6-85" style="rounded=0;orthogonalLoop=1;jettySize=auto;html=1;endArrow=none;endFill=0;entryX=0;entryY=0.5;entryDx=0;entryDy=0;" edge="1" parent="1" source="fuz9T2zDuwZ9aOWyhjX6-35" target="fuz9T2zDuwZ9aOWyhjX6-38">
          <mxGeometry relative="1" as="geometry">
            <mxPoint x="80" y="980" as="sourcePoint" />
            <mxPoint x="290" y="770" as="targetPoint" />
          </mxGeometry>
        </mxCell>
        <mxCell id="fuz9T2zDuwZ9aOWyhjX6-87" style="rounded=0;orthogonalLoop=1;jettySize=auto;html=1;endArrow=none;endFill=0;entryX=0;entryY=0.5;entryDx=0;entryDy=0;" edge="1" parent="1" source="fuz9T2zDuwZ9aOWyhjX6-35" target="fuz9T2zDuwZ9aOWyhjX6-84">
          <mxGeometry relative="1" as="geometry">
            <mxPoint x="90" y="1000" as="sourcePoint" />
            <mxPoint x="300" y="790" as="targetPoint" />
          </mxGeometry>
        </mxCell>
      </root>
    </mxGraphModel>
  </diagram>
</mxfile>
